<?xml version="1.0" encoding="UTF-8"?>
<svg width="129px" height="53px" viewBox="0 0 129 53" version="1.1" xmlns="http://www.w3.org/2000/svg" xmlns:xlink="http://www.w3.org/1999/xlink">
    <title>SWFT</title>
    <g id="页面-1" stroke="none" stroke-width="1" fill="none" fill-rule="evenodd">
        <g id="画板" transform="translate(-121.000000, -50.000000)" fill="#DBE9FF" fill-rule="nonzero">
            <g id="SWFT" transform="translate(121.000000, 50.000000)">
                <path d="M97.8826954,14.2546548 L86.5780786,35.6302106 L89.2027158,35.6302106 C90.4715831,35.6296069 91.6371219,34.9306615 92.2353021,33.8116418 L95.3072088,28.0856077 L103.17129,28.0856077 C104.28,28.0803958 105.292099,27.4537676 105.791012,26.4636409 L106.808428,24.4288099 L97.2535689,24.4288099 L100.625294,18.1424599 L115.011647,18.1424599 L106.11049,35.6154654 L108.47463,35.6154654 C109.835796,35.6130837 111.083311,34.8558671 111.713648,33.6494451 L119.926698,18.1277148 L124.261773,18.1277148 C125.535424,18.1282078 126.699993,17.4089151 127.269784,16.2698256 L128.282284,14.2546548 L97.8826954,14.2546548 L97.8826954,14.2546548 Z M37.4963817,39.5819114 C37.9812386,39.5709565 38.4654297,39.6238374 38.9364916,39.739193 C39.2905358,39.8191562 39.6248513,39.9695982 39.9195017,40.1815476 C40.1598477,40.3599639 40.3480942,40.5993269 40.4650723,40.8745698 C40.5770308,41.1627238 40.6321109,41.4698371 40.627269,41.7789391 C40.6287133,41.957276 40.6021773,42.1347359 40.5486283,42.3048495 C40.4965287,42.4817913 40.4134644,42.6489031 40.3028757,42.7963546 C40.1805874,42.9524206 40.0346503,43.0884075 39.8703512,43.1993888 C39.6737492,43.3330782 39.460436,43.4402263 39.2363097,43.5188671 C39.6888598,43.6060672 40.104882,43.8269185 40.430667,44.1529086 C40.6978747,44.4692962 40.8364606,44.8745286 40.818956,45.2882853 C40.8224422,45.6265565 40.7537416,45.961681 40.6174389,46.2712955 C40.4795501,46.57264 40.2764124,46.8395729 40.0227178,47.0527886 C39.7334704,47.2908711 39.3991153,47.4680793 39.0397076,47.573784 C38.6168854,47.7063823 38.1753411,47.7694601 37.7323041,47.7605559 L34.4883706,47.7605559 L34.4883706,39.5819114 L37.4963817,39.5819114 L37.4963817,39.5819114 Z M36.3708351,41.0023611 L36.3708351,43.0224469 L37.3538453,43.0224469 C37.543176,43.023954 37.7322849,43.0091541 37.9190761,42.9782115 C38.0698005,42.9515155 38.2145855,42.8982613 38.3466855,42.8209298 C38.4639754,42.7450208 38.5576298,42.6377439 38.6170133,42.5112817 C38.6844597,42.3564775 38.7163697,42.18853 38.7103992,42.0197766 C38.7151071,41.8528694 38.6901445,41.6864519 38.6366735,41.5282715 C38.5921675,41.4057199 38.5137594,41.2983349 38.4105811,41.2186233 C38.2973292,41.1341996 38.1661421,41.0770155 38.0272072,41.0515116 C37.8460115,41.0153925 37.6614499,40.9989138 37.4767215,41.0023611 L36.3708351,41.0023611 L36.3708351,41.0023611 Z M37.7028138,46.3253611 C37.9181571,46.3344588 38.1332798,46.3027741 38.3368554,46.2319751 C38.4768312,46.1791754 38.6029092,46.0951234 38.7054842,45.9862226 C38.7947403,45.8883948 38.8588428,45.7703114 38.8922561,45.642169 C38.9258207,45.5154984 38.9423498,45.3849187 38.9414067,45.25388 C38.9432528,45.117257 38.9233436,44.9812107 38.882426,44.8508458 C38.845092,44.7324126 38.775273,44.6268325 38.680909,44.5461127 C38.5685118,44.4580721 38.439929,44.3929457 38.30245,44.3544257 C38.1079549,44.306651 37.9079337,44.2851611 37.7077289,44.29053 L36.3708351,44.29053 L36.3708351,46.3253611 L37.7028138,46.3253611 L37.7028138,46.3253611 Z M49.0713262,46.2418052 L49.0713262,47.7556408 L44.1562755,47.7556408 L44.1562755,39.5819114 L46.0534851,39.5819114 L46.0534851,46.2418052 L49.0713262,46.2418052 Z M60.0073142,43.6663186 C60.0119084,44.2316527 59.9067484,44.7925059 59.697666,45.3177756 C59.503787,45.8138167 59.2111582,46.2653011 58.8375321,46.6448393 C58.457253,47.0259501 58.0043033,47.3268022 57.5055534,47.5295485 C56.3863813,47.9554041 55.1497845,47.9554041 54.0306125,47.5295485 C53.0175556,47.1324084 52.2159797,46.3308325 51.8188396,45.3177756 C51.41232,44.2543298 51.41232,43.0783074 51.8188396,42.0148615 C52.2167169,41.0045233 53.018512,40.2062917 54.0306125,39.8129188 C55.1485769,39.380544 56.3875889,39.380544 57.5055534,39.8129188 C58.0060565,40.0150863 58.4607246,40.3159697 58.8424472,40.6976279 C59.2169243,41.0745899 59.5097219,41.5246617 59.7025811,42.0197766 C59.9099598,42.5436732 60.0134593,43.1029042 60.0073142,43.6663186 L60.0073142,43.6663186 Z M58.0412939,43.6663186 C58.0453894,43.2966743 57.9923361,42.9286171 57.8840123,42.5751773 C57.7950543,42.2842978 57.6497611,42.0137519 57.4564029,41.7789391 C57.2567362,41.5615264 57.0094405,41.3932981 56.7338904,41.287434 C56.4221409,41.1601054 56.0875492,41.0982059 55.7508802,41.1055771 C55.4142113,41.0982059 55.0796196,41.1601054 54.7678701,41.287434 C54.4993885,41.3959299 54.2590585,41.5639928 54.0650179,41.7789391 C53.8582561,42.0177082 53.704175,42.2973989 53.6128332,42.5997526 C53.403253,43.3137568 53.403253,44.072946 53.6128332,44.7869502 C53.7042531,45.0892258 53.8585857,45.3688922 54.0650179,45.6077636 C54.2616199,45.8338559 54.5093384,46.0107978 54.7875303,46.123844 C55.1003393,46.2470246 55.434412,46.3071577 55.7705404,46.3007858 C56.1067207,46.3078119 56.4409212,46.2476558 56.7535506,46.123844 C57.0315487,46.010897 57.2790598,45.8341034 57.4760631,45.6077636 C57.6810586,45.3677682 57.8349256,45.0884662 57.9282478,44.7869502 C58.0328129,44.422977 58.0792584,44.0447774 58.0658692,43.6663186 L58.0412939,43.6663186 L58.0412939,43.6663186 Z M68.7757648,45.642169 C68.8213377,45.6347386 68.8678133,45.6347386 68.9133862,45.642169 C68.9630196,45.6599133 69.0070979,45.6904291 69.0411775,45.7306399 L69.7931803,46.5465384 C69.4701294,46.9737187 69.0439673,47.3119426 68.5545875,47.5295485 C67.9970299,47.7594405 67.3979583,47.8715572 66.7949993,47.8588569 C66.2235938,47.8674428 65.656502,47.7587084 65.1287971,47.5393786 C64.6596979,47.3349238 64.2392398,47.0334001 63.8951193,46.6546695 C63.5465646,46.2714509 63.2790717,45.8217285 63.1087112,45.3325208 C62.9195563,44.7976631 62.8263768,44.2335946 62.8334684,43.6663186 C62.8271031,43.0925977 62.9270916,42.5226631 63.1283714,41.9853712 C63.3155449,41.4931494 63.5996846,41.0435401 63.9639301,40.6632226 C64.3262616,40.2964565 64.7593619,40.0071656 65.2369282,39.8129188 C65.7632682,39.6016138 66.3261706,39.4963828 66.8933004,39.5032706 C67.1836936,39.502661 67.4734412,39.5306479 67.7583493,39.5868264 C68.0191063,39.6369722 68.2742847,39.7127025 68.5201821,39.8129188 C68.7482603,39.9037815 68.9657976,40.0191422 69.1689689,40.1569723 C69.3606558,40.2842722 69.5380892,40.4307407 69.6997943,40.5944119 L69.0559227,41.4545457 C69.0134204,41.5068167 68.9656572,41.5545799 68.9133862,41.5970822 C68.8438231,41.6435506 68.7609696,41.6659901 68.6774638,41.6609779 C68.6109784,41.6615136 68.5453042,41.646358 68.4857768,41.6167424 L68.2940898,41.5086113 L68.0729125,41.3660748 C67.9819988,41.3107513 67.8866466,41.2630752 67.7878396,41.2235384 C67.6610841,41.1785021 67.531339,41.1423705 67.3995506,41.1154072 C67.2277477,41.0836763 67.0532484,41.0688603 66.8785552,41.0711718 C66.5830629,41.0687354 66.2902464,41.1272987 66.0184213,41.2431986 C65.7601376,41.3547948 65.5300719,41.5227259 65.3450594,41.7347036 C65.1476463,41.9756825 64.9990661,42.2528097 64.9076198,42.5506021 C64.800032,42.9108353 64.7486392,43.2855054 64.7552532,43.6614035 C64.7473494,44.0404783 64.8055624,44.418031 64.92728,44.7771201 C65.025581,45.0784126 65.1828627,45.357096 65.3892948,45.5979335 C65.5802975,45.8097407 65.815097,45.9774547 66.0774019,46.0894386 C66.3428111,46.2037704 66.6288893,46.2623244 66.9178756,46.2614654 C67.0815099,46.2729364 67.2457465,46.2729364 67.4093807,46.2614654 C67.5446192,46.2474546 67.6780396,46.2194528 67.8074998,46.1779095 C67.9296726,46.1395707 68.0468261,46.0867691 68.1564684,46.0206279 C68.276162,45.9487316 68.3881571,45.8647353 68.4906918,45.7699603 C68.5351064,45.7343425 68.5828375,45.7030704 68.6332283,45.6765743 C68.6780843,45.656042 68.7264815,45.64436 68.7757648,45.642169 L68.7757648,45.642169 Z M74.6639956,42.8897406 L74.9687287,42.8897406 C75.2015515,42.9121191 75.4296405,42.8138368 75.57328,42.6292429 L77.416424,39.9554553 C77.5047474,39.8281385 77.6251296,39.726407 77.7653926,39.6605522 C77.9141926,39.6033104 78.0729817,39.5765669 78.2323224,39.5819114 L79.8837795,39.5819114 L77.4606595,42.8848255 C77.3146772,43.0881927 77.1248698,43.2561639 76.9052587,43.3763306 C77.0450251,43.4247552 77.1748998,43.4980179 77.2886327,43.5925928 C77.415441,43.6972834 77.5260296,43.8196681 77.6179411,43.9563066 L80.0754665,47.7507258 L78.379774,47.7507258 C78.288227,47.7593076 78.1960781,47.7593076 78.1045311,47.7507258 C78.0344178,47.7375287 77.9665562,47.7143565 77.9030141,47.6819151 C77.8496223,47.6543599 77.8013993,47.6177769 77.7604776,47.573784 C77.7158944,47.5290852 77.6763384,47.4796401 77.6425164,47.4263324 L75.7895422,44.580518 C75.7310056,44.4806782 75.6411698,44.4029357 75.5339596,44.3593408 C75.4006631,44.3088432 75.2586307,44.2854497 75.1161802,44.29053 L74.6541655,44.29053 L74.6541655,47.770386 L72.7569559,47.770386 L72.7569559,39.5819114 L74.6541655,39.5819114 L74.6639956,42.8897406 L74.6639956,42.8897406 Z M87.9788681,45.642169 C88.0228277,45.6351818 88.067615,45.6351818 88.1115745,45.642169 C88.1626758,45.659769 88.2083804,45.6902387 88.2442809,45.7306399 L88.9962837,46.5219631 C88.6732327,46.9491435 88.2470707,47.2873673 87.7576908,47.5049732 C87.2001332,47.7348652 86.6010616,47.846982 85.9981027,47.8342817 C85.4251073,47.8428444 84.8564149,47.7341238 84.3269854,47.5148034 C83.8525307,47.316785 83.4266177,47.0183105 83.0785625,46.6399243 C82.7284645,46.2569785 82.45931,45.8072731 82.2872393,45.3177756 C82.100048,44.7824146 82.0069261,44.2186945 82.0119965,43.6515735 C82.0047583,43.0773412 82.1064954,42.5069461 82.3118146,41.9706261 C82.4972749,41.47755 82.7816209,41.0276143 83.1473732,40.6484774 C83.5211451,40.2830988 83.9662017,39.9986642 84.4547767,39.8129188 C84.9795129,39.6020013 85.5407322,39.4967727 86.1062338,39.5032706 C86.398269,39.5023373 86.6896789,39.5303258 86.9761978,39.5868264 C87.2369549,39.6369722 87.4921332,39.7127025 87.7380306,39.8129188 C87.9656243,39.9048254 88.1830537,40.0201289 88.3868173,40.1569723 C88.5767462,40.2842469 88.752989,40.4308414 88.9127278,40.5944119 L88.2737712,41.4545457 C88.2308113,41.5080705 88.1812695,41.5559609 88.1263196,41.5970822 C88.0574042,41.6449582 87.9740542,41.6675321 87.8903972,41.6609779 C87.8255506,41.6609277 87.7616058,41.6457829 87.7036253,41.6167424 C87.6397296,41.5872521 87.580749,41.5479317 87.5119383,41.5086113 L87.290761,41.3660748 C87.1993128,41.3117237 87.1040379,41.2640862 87.0056881,41.2235384 C86.8789326,41.1785021 86.7491875,41.1423705 86.617399,41.1154072 C86.4455631,41.0839231 86.271088,41.0691092 86.0964037,41.0711718 C85.8008711,41.0683089 85.507968,41.1268895 85.2362698,41.2431986 C84.97731,41.3536085 84.7469967,41.5217205 84.5629078,41.7347036 C84.3636475,41.9744429 84.2148598,42.2519572 84.1254684,42.5506021 C84.0161404,42.910558 83.9630873,43.2852455 83.9681867,43.6614035 C83.9627,44.0403145 84.02085,44.4174591 84.1402135,44.7771201 C84.2405206,45.0786987 84.3991762,45.3575986 84.6071433,45.5979335 C84.7981459,45.8097407 85.0329455,45.9774547 85.2952504,46.0894386 C85.5604891,46.2043125 85.8466817,46.26289 86.1357241,46.2614654 C86.2993583,46.2729364 86.4635949,46.2729364 86.6272292,46.2614654 C86.7516981,46.2535423 86.8751307,46.2337931 86.995858,46.2024848 C87.1176696,46.1632026 87.2347168,46.1104489 87.3448266,46.0452032 C87.4629079,45.9731703 87.5732591,45.8891716 87.674135,45.7945356 C87.7194942,45.7577893 87.7689779,45.7264496 87.8215865,45.7011496 C87.869009,45.6701043 87.9227255,45.6499607 87.9788681,45.642169 L87.9788681,45.642169 Z M99.1212882,39.5819114 L99.1212882,47.7556408 L97.2142485,47.7556408 L97.2142485,44.3151053 L93.876929,44.3151053 L93.876929,47.7556408 L91.9698894,47.7556408 L91.9698894,39.5819114 L93.876929,39.5819114 L93.876929,43.0224469 L97.1995034,43.0224469 L97.1995034,39.5819114 L99.1212882,39.5819114 Z M110.185067,47.7556408 L108.710552,47.7556408 C108.568809,47.7647276 108.42825,47.7248157 108.312433,47.6425947 C108.210511,47.566652 108.130753,47.4648335 108.081426,47.3476916 L107.589921,45.9223269 L104.493439,45.9223269 L104.001934,47.3476916 C103.952435,47.4592569 103.876524,47.5570973 103.780756,47.6327646 C103.665859,47.7177535 103.525448,47.7610901 103.382637,47.7556408 L101.908122,47.7556408 L105.073415,39.5819114 L107.039435,39.5819114 L110.185067,47.7556408 L110.185067,47.7556408 Z M107.172141,44.6296685 L106.410309,42.3933204 C106.347959,42.230718 106.288966,42.0668482 106.233367,41.9018154 C106.169471,41.7052133 106.105575,41.4987812 106.04168,41.2726888 C105.987614,41.5036962 105.923718,41.7150434 105.864738,41.9067304 C105.805757,42.0984174 105.736947,42.2704442 105.682881,42.3982355 L104.930878,44.6247535 L107.172141,44.6296685 Z M114.878941,47.7556408 L112.971901,47.7556408 L112.971901,39.5819114 L114.878941,39.5819114 L114.878941,47.7556408 Z M125.746118,39.5819114 L125.746118,47.7556408 L124.763108,47.7556408 C124.636581,47.7612782 124.510452,47.7377342 124.394479,47.6868301 C124.279106,47.627893 124.178352,47.5439317 124.099576,47.4410776 L120.246176,42.5653472 C120.246176,42.7127987 120.270752,42.8553352 120.275667,42.9880416 C120.280582,43.1207479 120.275667,43.2534543 120.275667,43.3763306 L120.275667,47.7556408 L118.604549,47.7556408 L118.604549,39.5819114 L119.58756,39.5819114 C119.65637,39.5765048 119.725181,39.5765048 119.793992,39.5819114 C119.89812,39.5953079 119.995772,39.639851 120.07415,39.7097027 C120.125266,39.7573787 120.172451,39.8080037 120.216686,39.8620693 L124.104491,44.7771201 C124.104491,44.6198384 124.075001,44.4674718 124.065171,44.3200203 C124.055341,44.1725688 124.065171,44.0349474 124.065171,43.902241 L124.065171,39.5769963 L125.746118,39.5819114 L125.746118,39.5819114 Z M25.1399441,3.18104543 C25.1399441,3.18104543 22.2597243,0.300825667 18.8634242,0.0403279687 C15.4671241,-0.220169729 14.1548056,0.826736073 14.4153033,1.87364193 C14.675801,2.92054773 15.8554132,3.04833905 17.4233143,2.00143325 C18.9912155,0.954527443 22.3924307,1.21994015 25.1399441,3.18104543 Z" id="形状"></path>
                <path d="M23.7244095,3.60865484 C23.7244095,3.60865484 21.4339958,2.17837509 19.2025628,2.51751358 C16.9711297,2.85665207 16.2535323,3.72661609 16.6025009,4.36065761 C16.9514695,4.99469914 17.7083873,4.90622827 18.5685212,3.99694386 C19.4286551,3.08765945 21.6551731,2.75343602 23.7244095,3.60865484 L23.7244095,3.60865484 Z" id="路径"></path>
                <path d="M23.3705258,3.9723686 C22.3961109,3.64813652 21.3450718,3.63439745 20.3625147,3.9330482 C19.0010456,4.45895861 18.6913975,5.10774532 18.9863005,5.461629 C19.2812036,5.81551268 19.7579635,5.65331598 20.1708277,4.97012388 C20.583692,4.28693183 21.945161,3.72170097 23.3705258,3.9723686 L23.3705258,3.9723686 Z M30.4973494,12.4655763 C33.0875811,11.3547749 34.9208951,10.8927601 40.042378,12.0723722 C40.042378,12.0723722 32.7238674,-0.215254667 23.8227105,3.96253847 C20.5591167,5.66314605 20.298619,9.33960399 20.0381214,10.6322624 C19.7776237,11.9249208 20.1315074,16.3435514 16.6369062,18.4963436 C11.9332026,21.3569032 -4.02105212,26.0507766 0.948064185,53 C0.948064185,53 1.46905958,45.937072 10.8862968,44.1086731 C20.3035341,42.2802742 23.9603319,42.8012696 28.6689505,37.5716556 C33.3775692,32.3420416 31.2837575,22.403809 30.2368517,19.5235892 C29.1899459,16.6433695 28.6689505,13.2716446 30.4973494,12.4655763 L30.4973494,12.4655763 Z M23.8915212,34.3670425 C21.8763504,38.2204423 17.6641518,37.6306362 15.8210078,37.6552115 C14.8085073,37.6552115 12.3018315,37.0899806 9.97701243,37.7830028 C7.14102813,38.6283916 6.62003274,39.7834285 5.74515376,40.6288172 C5.74515376,40.6288172 6.12852772,35.2222613 9.29873545,30.7987157 C12.4689432,26.3751701 17.3053532,24.8662494 20.490306,25.9573907 C23.6752589,27.0485319 25.906692,30.5087277 23.8915212,34.3670425 L23.8915212,34.3670425 Z M36.9065756,10.504471 C36.9065756,10.504471 31.8047529,9.83110906 29.8436477,11.7971294 C29.8436477,11.7971294 31.4164639,7.3735837 36.9065756,10.504471 Z M85.8801415,16.2206751 L79.1317767,28.9998071 L77.4213391,14.254613 L74.5165441,14.254613 C73.2093508,14.2565823 72.0103033,14.980928 71.4004019,16.1371192 L64.5193308,29.2308145 L63.1480316,15.4096917 C63.1467355,15.1011954 63.0226022,14.8059234 62.8030812,14.5891696 C62.5835603,14.3724157 62.2867376,14.2520377 61.9782496,14.254613 L46.9971748,14.254613 C46.2023502,14.2945234 45.415205,14.4298398 44.6526956,14.657689 C43.7538268,14.9169784 42.9106485,15.3402339 42.1656799,15.9061119 C41.4468547,16.4620584 40.8580827,17.1682493 40.4404971,17.9753482 C40.0020656,18.8673 39.7862025,19.8521752 39.8113706,20.8457378 C39.7583608,21.8100172 39.9982308,22.7677839 40.4994777,23.5932512 C40.9588874,24.2673786 41.5635026,24.8300066 42.268896,25.2397933 C42.9915579,25.6588405 43.7622682,25.9889091 44.5642247,26.2228034 C45.3899532,26.468556 46.1567011,26.717749 46.8644685,26.9698911 C47.5064975,27.185869 48.1115484,27.4991693 48.658462,27.8988357 C49.1260383,28.2406749 49.3902018,28.7948641 49.3613143,29.373351 C49.3681746,29.7101862 49.2721568,30.0411047 49.0860714,30.3219558 C48.8912277,30.5905604 48.6373139,30.8108433 48.3438987,30.9658274 C48.0370365,31.1427492 47.7058225,31.2735787 47.3608886,31.3541164 C47.1583885,31.3998264 46.9529394,31.4347232 46.7465073,31.4573325 L45.6357058,31.4573325 L38.7546347,31.3983519 C37.3828787,31.3897173 36.1213541,32.1485292 35.486126,33.3643722 L34.2868535,35.6449557 L46.721932,35.6449557 C47.4851014,35.5980519 48.2412435,35.4712045 48.9779403,35.2664968 C49.8831286,35.0167199 50.7322678,34.5963209 51.4797011,34.027904 C52.2017089,33.4684562 52.7852775,32.7503473 53.1852238,31.9291774 C53.6246247,31.0093933 53.8418058,29.9992484 53.8192653,28.9801469 C53.8677448,27.9851641 53.6288704,26.9972482 53.1311582,26.1343325 C52.6873368,25.4444215 52.0923395,24.8645513 51.3912302,24.43864 C50.6863643,24.0119558 49.9276491,23.681361 49.1352219,23.4556298 C48.3291536,23.226097 47.5771508,22.9950896 46.8792136,22.7626077 C46.2622729,22.574867 45.6773078,22.2948129 45.1442007,21.9319641 C44.6863872,21.6141313 44.4245091,21.0829458 44.4511786,20.5262596 C44.4401113,20.1759942 44.5417593,19.8314247 44.7411665,19.5432494 C44.9328398,19.2717575 45.1875132,19.0508157 45.4833392,18.8993778 C45.7928637,18.7338213 46.1236083,18.6114458 46.4663494,18.535664 C46.6432912,18.4968351 46.822199,18.4673448 47.0020899,18.4471931 L59.1619255,18.4471931 L61.2016716,35.5368246 L65.7726688,35.5368246 L73.63675,20.7916723 L75.3521027,35.5368246 L80.1541073,35.5368246 L91.3653381,14.254613 L89.124075,14.254613 C87.7614514,14.2563147 86.5121353,15.013476 85.8801415,16.2206751 L85.8801415,16.2206751 Z" id="形状"></path>
            </g>
        </g>
    </g>
</svg>